<svg xmlns="http://www.w3.org/2000/svg" viewBox="0 0 1000 760" role="img" aria-labelledby="title description">
  <title id="title">How a binaural beat is created</title>
  <desc id="description">Separate 200 hertz and 210 hertz stereo channels are compared by the auditory system, producing the perception of a 10 hertz rhythmic difference.</desc>
  <defs>
    <filter id="grain" x="0" y="0" width="100%" height="100%">
      <feTurbulence type="fractalNoise" baseFrequency=".8" numOctaves="2" seed="11"/>
      <feColorMatrix values="0 0 0 0 0 0 0 0 0 0 0 0 0 0 0 0 0 0 .045 0"/>
    </filter>
  </defs>

  <rect width="1000" height="760" rx="24" fill="#D0DECE"/>
  <rect width="1000" height="760" rx="24" filter="url(#grain)" opacity=".6"/>

  <g fill="none" stroke="#161E15" stroke-width="2">
    <rect x="55" y="55" width="410" height="190" rx="20" opacity=".28"/>
    <rect x="535" y="55" width="410" height="190" rx="20" opacity=".28"/>
  </g>

  <path d="M105 125 C132 82 186 82 213 125 S294 168 321 125 S402 82 429 125" fill="none" stroke="#161E15" stroke-width="5" stroke-linecap="round"/>
  <path d="M585 125 C610 82 660 82 685 125 S760 168 785 125 S860 82 885 125 S930 155 940 140" fill="none" stroke="#1F2921" stroke-width="5" stroke-linecap="round"/>

  <g font-family="IBM Plex Sans, Arial, sans-serif" font-size="24" letter-spacing="2" text-anchor="middle" fill="#536052">
    <text x="260" y="186">LEFT CHANNEL</text>
    <text x="740" y="186">RIGHT CHANNEL</text>
  </g>
  <g font-family="IBM Plex Mono, ui-monospace, monospace" font-size="38" font-weight="600" text-anchor="middle" fill="#161E15">
    <text x="260" y="226">200 Hz</text>
    <text x="740" y="226">210 Hz</text>
  </g>

  <g fill="none" stroke-width="3" stroke-linecap="round">
    <path d="M260 270 L445 360" stroke="#161E15" opacity=".55"/>
    <path d="M740 270 L555 360" stroke="#1F2921" opacity=".55"/>
  </g>
  <path d="M500 340 L500 410" stroke="#B99457" stroke-width="3"/>
  <path d="M489 397 L500 410 L511 397" fill="none" stroke="#B99457" stroke-width="3" stroke-linecap="round" stroke-linejoin="round"/>

  <rect x="250" y="410" width="500" height="125" rx="18" fill="none" stroke="#161E15" stroke-width="2" opacity=".3"/>
  <circle cx="500" cy="450" r="13" fill="none" stroke="#B99457" stroke-width="4"/>
  <text x="500" y="499" text-anchor="middle" fill="#161E15" font-family="IBM Plex Sans, Arial, sans-serif" font-size="29" letter-spacing="2">AUDITORY PROCESSING</text>

  <path d="M500 550 L500 595" stroke="#B99457" stroke-width="3"/>
  <path d="M489 582 L500 595 L511 582" fill="none" stroke="#B99457" stroke-width="3" stroke-linecap="round" stroke-linejoin="round"/>

  <rect x="205" y="595" width="590" height="125" rx="20" fill="none" stroke="#B99457" stroke-width="4"/>
  <text x="500" y="644" text-anchor="middle" fill="#B99457" font-family="IBM Plex Sans, Arial, sans-serif" font-size="26" letter-spacing="2">PERCEIVED RHYTHMIC DIFFERENCE</text>
  <text x="500" y="696" text-anchor="middle" fill="#B99457" font-family="IBM Plex Mono, ui-monospace, monospace" font-size="43" font-weight="600">10 Hz</text>
</svg>
