<svg xmlns="http://www.w3.org/2000/svg" viewBox="0 0 1200 675" role="img" aria-labelledby="title description">
  <title id="title">Two frequencies create one perceived rhythm</title>
  <desc id="description">A 200 hertz tone in the left channel and a 210 hertz tone in the right channel remain separate while the listener perceives a 10 hertz rhythmic difference.</desc>
  <defs>
    <filter id="grain" x="0" y="0" width="100%" height="100%">
      <feTurbulence type="fractalNoise" baseFrequency=".8" numOctaves="2" seed="7"/>
      <feColorMatrix values="0 0 0 0 0 0 0 0 0 0 0 0 0 0 0 0 0 0 .045 0"/>
    </filter>
    <linearGradient id="leftFade" x1="0" x2="1">
      <stop offset="0" stop-color="#161E15"/>
      <stop offset=".72" stop-color="#161E15" stop-opacity=".22"/>
      <stop offset="1" stop-color="#161E15" stop-opacity=".08"/>
    </linearGradient>
    <linearGradient id="rightFade" x1="1" x2="0">
      <stop offset="0" stop-color="#1F2921"/>
      <stop offset=".72" stop-color="#1F2921" stop-opacity=".22"/>
      <stop offset="1" stop-color="#1F2921" stop-opacity=".08"/>
    </linearGradient>
  </defs>

  <rect width="1200" height="675" rx="24" fill="#D0DECE"/>
  <rect width="1200" height="675" rx="24" filter="url(#grain)" opacity=".6"/>

  <g font-family="IBM Plex Mono, ui-monospace, monospace" fill="#161E15">
    <text x="88" y="92" font-size="25" letter-spacing="3" opacity=".62">LEFT CHANNEL</text>
    <text x="88" y="137" font-size="40" font-weight="600">200 Hz</text>
  </g>
  <g font-family="IBM Plex Mono, ui-monospace, monospace" fill="#1F2921" text-anchor="end">
    <text x="1112" y="92" font-size="25" letter-spacing="3" opacity=".62">RIGHT CHANNEL</text>
    <text x="1112" y="137" font-size="40" font-weight="600">210 Hz</text>
  </g>

  <line x1="88" y1="332" x2="1112" y2="332" stroke="#161E15" stroke-width="1" opacity=".1"/>
  <path d="M88 332 C123 262 193 262 228 332 S333 402 368 332 S473 262 508 332 S613 402 648 332 S753 262 788 332 S893 402 928 332 S1033 262 1068 332 S1103 402 1112 371" fill="none" stroke="url(#leftFade)" stroke-width="4" stroke-linecap="round"/>
  <path d="M88 360 C120 287 184 287 216 360 S312 433 344 360 S440 287 472 360 S568 433 600 360 S696 287 728 360 S824 433 856 360 S952 287 984 360 S1080 433 1112 360" fill="none" stroke="url(#rightFade)" stroke-width="4" stroke-linecap="round"/>

  <g fill="none" stroke="#B99457" stroke-width="5" stroke-linecap="round">
    <path d="M474 330 C506 248 562 248 594 330"/>
    <path d="M594 330 C626 412 682 412 714 330"/>
  </g>
  <circle cx="474" cy="330" r="6" fill="#B99457"/>
  <circle cx="714" cy="330" r="6" fill="#B99457"/>

  <text x="600" y="520" text-anchor="middle" fill="#B99457" font-family="Fraunces, Georgia, serif" font-size="51" font-weight="600">Perceived difference: 10 Hz</text>
  <text x="600" y="572" text-anchor="middle" fill="#536052" font-family="IBM Plex Sans, Arial, sans-serif" font-size="30">Two tones. Two ears. One perceived rhythm.</text>
</svg>
